<mxfile host="app.diagrams.net" modified="2024-02-23T21:08:09.814Z" agent="Mozilla/5.0 (Windows NT 10.0; Win64; x64) AppleWebKit/537.36 (KHTML, like Gecko) Chrome/121.0.0.0 Safari/537.36 Edg/121.0.0.0" etag="7cJ55ol_FCxS9_MRpxxz" version="23.1.6" type="github">
  <diagram id="C5RBs43oDa-KdzZeNtuy" name="Page-1">
    <mxGraphModel dx="1181" dy="446" grid="1" gridSize="10" guides="1" tooltips="1" connect="1" arrows="1" fold="1" page="1" pageScale="1" pageWidth="827" pageHeight="1169" math="0" shadow="0">
      <root>
        <mxCell id="WIyWlLk6GJQsqaUBKTNV-0" />
        <mxCell id="WIyWlLk6GJQsqaUBKTNV-1" parent="WIyWlLk6GJQsqaUBKTNV-0" />
        <mxCell id="sP9evEGXutJlZ9QTME4c-12" value="User" style="swimlane;fontStyle=1;align=center;verticalAlign=top;childLayout=stackLayout;horizontal=1;startSize=26;horizontalStack=0;resizeParent=1;resizeParentMax=0;resizeLast=0;collapsible=1;marginBottom=0;whiteSpace=wrap;html=1;" vertex="1" parent="WIyWlLk6GJQsqaUBKTNV-1">
          <mxGeometry x="30" y="40" width="160" height="298" as="geometry" />
        </mxCell>
        <mxCell id="sP9evEGXutJlZ9QTME4c-13" value="- id : int;&lt;br style=&quot;border-color: var(--border-color);&quot;&gt;&lt;span style=&quot;border-color: var(--border-color); background-color: initial;&quot;&gt;- firstName : string;&lt;br style=&quot;border-color: var(--border-color);&quot;&gt;- lastName : string;&lt;br style=&quot;border-color: var(--border-color);&quot;&gt;- username : string;&lt;br style=&quot;border-color: var(--border-color);&quot;&gt;- email : string;&lt;br style=&quot;border-color: var(--border-color);&quot;&gt;- password : string;&lt;br style=&quot;border-color: var(--border-color);&quot;&gt;- todoIDs: []int;&lt;br style=&quot;border-color: var(--border-color);&quot;&gt;- birthdate : date;&lt;br style=&quot;border-color: var(--border-color);&quot;&gt;- createdAt : dateTime;&lt;br style=&quot;border-color: var(--border-color);&quot;&gt;- updatedAt : dateTime;&lt;br style=&quot;border-color: var(--border-color);&quot;&gt;- active : boolean;&lt;/span&gt;" style="text;strokeColor=none;fillColor=none;align=left;verticalAlign=top;spacingLeft=4;spacingRight=4;overflow=hidden;rotatable=0;points=[[0,0.5],[1,0.5]];portConstraint=eastwest;whiteSpace=wrap;html=1;" vertex="1" parent="sP9evEGXutJlZ9QTME4c-12">
          <mxGeometry y="26" width="160" height="194" as="geometry" />
        </mxCell>
        <mxCell id="sP9evEGXutJlZ9QTME4c-14" value="" style="line;strokeWidth=1;fillColor=none;align=left;verticalAlign=middle;spacingTop=-1;spacingLeft=3;spacingRight=3;rotatable=0;labelPosition=right;points=[];portConstraint=eastwest;strokeColor=inherit;" vertex="1" parent="sP9evEGXutJlZ9QTME4c-12">
          <mxGeometry y="220" width="160" height="8" as="geometry" />
        </mxCell>
        <mxCell id="sP9evEGXutJlZ9QTME4c-15" value="+ method(type): type" style="text;strokeColor=none;fillColor=none;align=left;verticalAlign=top;spacingLeft=4;spacingRight=4;overflow=hidden;rotatable=0;points=[[0,0.5],[1,0.5]];portConstraint=eastwest;whiteSpace=wrap;html=1;" vertex="1" parent="sP9evEGXutJlZ9QTME4c-12">
          <mxGeometry y="228" width="160" height="70" as="geometry" />
        </mxCell>
      </root>
    </mxGraphModel>
  </diagram>
</mxfile>
